<svg xmlns:xlink="http://www.w3.org/1999/xlink" viewBox = "0 16 24 24" xmlns="http://www.w3.org/2000/svg"><symbol id="link-external-icon-w16" viewBox="0 0 16 16"><path fill-rule="evenodd" clip-rule="evenodd" d="M11 1.833a.5.5 0 0 0 0 1h1.502L6.971 8.656a.5.5 0 0 0 .725.688l5.47-5.758V5a.5.5 0 0 0 1 0V2.333a.5.5 0 0 0-.5-.5H11Zm-8.667 2a.5.5 0 0 0-.5.5v9.334a.5.5 0 0 0 .5.5h9.334a.5.5 0 0 0 .5-.5V6.864a.5.5 0 1 0-1 0v6.303H2.833V4.833h6.612a.5.5 0 0 0 0-1H2.333Z" fill="currentColor"/></symbol><symbol id="link-external-icon-w24" viewBox="0 0 24 24"><path fill-rule="evenodd" clip-rule="evenodd" d="M16.5 3a.5.5 0 0 0 0 1h2.835l-8.698 9.156a.5.5 0 0 0 .726.688L20 4.752V7.5a.5.5 0 0 0 1 0v-4a.5.5 0 0 0-.5-.5h-4Zm-13 3a.5.5 0 0 0-.5.5v14a.5.5 0 0 0 .5.5h14a.5.5 0 0 0 .5-.5V10.297a.5.5 0 0 0-1 0V20H4V7h10.168a.5.5 0 0 0 0-1H3.5Z" fill="currentColor"/></symbol><use xlink:href = "#link-external-icon-w16"  href = "#link-external-icon-w16" class="v-icon--16" width="16" height="16" x="0" y="0" /><view id = "link-external-icon-w16-view" viewBox = "0 0 16 16"></view><use xlink:href = "#link-external-icon-w24" href = "#link-external-icon-w24" class="v-icon--24"  width="24" height="24" x="0" y="16" /><view id = "link-external-icon-w24-view" viewBox = "0 16 24 24"></view></svg>