<svg class=" v-icon" xmlns:xlink="http://www.w3.org/1999/xlink" xmlns="http://www.w3.org/2000/svg"><symbol id="close-icon-w16" viewBox="0 0 16 16"><path fill-rule="evenodd" clip-rule="evenodd" d="M2.313 2.313a.5.5 0 0 1 .707 0L8 7.293l4.98-4.98a.5.5 0 1 1 .707.707L8.707 8l4.98 4.98a.5.5 0 1 1-.707.707L8 8.707l-4.98 4.98a.5.5 0 1 1-.707-.707L7.293 8l-4.98-4.98a.5.5 0 0 1 0-.707Z" fill="currentColor"/></symbol><symbol id="close-icon-w24" viewBox="0 0 24 24"><path fill-rule="evenodd" clip-rule="evenodd" d="M3.646 3.646a.5.5 0 0 1 .708 0L12 11.293l7.646-7.647a.5.5 0 0 1 .708.708L12.707 12l7.647 7.646a.5.5 0 0 1-.708.708L12 12.707l-7.646 7.647a.5.5 0 0 1-.708-.708L11.293 12 3.646 4.354a.5.5 0 0 1 0-.708Z" fill="currentColor"/></symbol><use xlink:href="#close-icon-w16" href="#close-icon-w16" class="v-icon--16" width="16" height="16" x="0" y="0"/><view id="close-icon-w16-view" viewBox="0 0 16 16"/><use xlink:href="#close-icon-w24" href="#close-icon-w24" class="v-icon--24" width="24" height="24" x="0" y="16"/><view id="close-icon-w24-view" viewBox="0 16 24 24"/></svg>